<?xml version="1.0" encoding="UTF-8" standalone="no"?>
<svg
   xmlns:dc="http://purl.org/dc/elements/1.1/"
   xmlns:cc="http://creativecommons.org/ns#"
   xmlns:rdf="http://www.w3.org/1999/02/22-rdf-syntax-ns#"
   xmlns:svg="http://www.w3.org/2000/svg"
   xmlns="http://www.w3.org/2000/svg"
   xmlns:sodipodi="http://sodipodi.sourceforge.net/DTD/sodipodi-0.dtd"
   xmlns:inkscape="http://www.inkscape.org/namespaces/inkscape"
   inkscape:version="1.0rc1 (09960d6, 2020-04-09)"
   sodipodi:docname="CLogo.svg"
   id="svg839"
   version="1.1"
   preserveAspectRatio="xMidYMid"
   viewBox="0 0 256 255.9744"
   height="2222"
   width="2222">
  <metadata
     id="metadata845">
    <rdf:RDF>
      <cc:Work
         rdf:about="">
        <dc:format>image/svg+xml</dc:format>
        <dc:type
           rdf:resource="http://purl.org/dc/dcmitype/StillImage" />
        <dc:title></dc:title>
      </cc:Work>
    </rdf:RDF>
  </metadata>
  <defs
     id="defs843" />
  <sodipodi:namedview
     inkscape:current-layer="svg839"
     inkscape:window-maximized="0"
     inkscape:window-y="23"
     inkscape:window-x="0"
     inkscape:cy="865.7383"
     inkscape:cx="1438.9954"
     inkscape:zoom="0.1872491"
     showgrid="false"
     id="namedview841"
     inkscape:window-height="767"
     inkscape:window-width="1240"
     inkscape:pageshadow="2"
     inkscape:pageopacity="0"
     guidetolerance="10"
     gridtolerance="10"
     objecttolerance="10"
     borderopacity="1"
     bordercolor="#666666"
     pagecolor="#ffffff" />
  <path
     style="stroke-width:0.887045"
     inkscape:connector-curvature="0"
     id="path833"
     fill="#a9b9cb"
     d="m 239.62226,75.949536 c -0.002,-4.286902 -0.92181,-8.074565 -2.78142,-11.324928 -1.82674,-3.197252 -4.56372,-5.875792 -8.23318,-7.994901 C 198.31241,39.218315 167.98782,21.860034 137.70324,4.4309378 129.53851,-0.26668594 121.6218,-0.09584715 113.51753,4.6699351 101.45933,11.758416 41.087502,46.234212 23.097555,56.619971 c -7.408252,4.275395 -11.013708,10.817724 -11.015486,19.3216 -0.01156,35.015749 0,70.029739 -0.01156,105.046369 0.0018,4.19219 0.882697,7.90639 2.660536,11.10895 1.827617,3.29285 4.601934,6.04575 8.356729,8.21265 17.990834,10.38577 78.370676,44.8589 90.426196,51.94916 8.10783,4.76843 16.02454,4.93838 24.19194,0.23899 30.28547,-17.42998 60.61184,-34.78737 90.91154,-52.19876 3.75478,-2.16603 6.52911,-4.92069 8.35672,-8.21088 1.77517,-3.20258 2.65786,-6.91678 2.65965,-11.10985 0,0 0,-70.01202 -0.0116,-105.028664" />
  <path
     style="stroke-width:0.887129"
     inkscape:connector-curvature="0"
     id="path835"
     fill="#7f8b99"
     d="m 136.93318,4.2954877 c -8.13291,-4.69764519 -16.01837,-4.52638615 -24.091,0.2386971 C 100.83084,11.621471 40.694259,46.092459 22.774348,56.477147 15.394414,60.751523 11.803336,67.293087 11.801563,75.7957 c -0.01153,35.01049 0,70.02011 -0.01153,105.0315 0.0018,4.19185 0.878923,7.90542 2.650071,11.10699 1.820816,3.29296 4.584411,6.04553 8.324488,8.21156 A 7989.6903,7993.7251 0 0 0 40.64371,210.45678 L 206.57649,44.440208 C 183.35909,31.064253 160.1355,17.698948 136.93318,4.2954877" />
  <path
     inkscape:connector-curvature="0"
     id="path837"
     fill="#ffffff"
     d="m 152.63443,107.53789 39.839,0.281 c 0,-16.598998 -16.802,-57.248998 -64.973,-57.248998 -30.691003,0 -71.951003,19.512 -71.951003,75.609998 0,56.097 40.447,74.39 71.951003,74.39 51.017,0 63.21,-35.302 63.21,-55.252 l -38.007,-2.173 c 0,0 1.017,23.075 -25.406,23.075 -24.39,0 -28.460003,-29.878 -28.460003,-40.04 0,-15.447 5.493003,-40.243998 28.460003,-40.243998 22.968,0 25.337,21.601998 25.337,21.601998" />
</svg>
