<?xml version="1.0" encoding="UTF-8" standalone="no"?>
<svg
   xmlns:dc="http://purl.org/dc/elements/1.1/"
   xmlns:cc="http://creativecommons.org/ns#"
   xmlns:rdf="http://www.w3.org/1999/02/22-rdf-syntax-ns#"
   xmlns:svg="http://www.w3.org/2000/svg"
   xmlns="http://www.w3.org/2000/svg"
   xmlns:sodipodi="http://sodipodi.sourceforge.net/DTD/sodipodi-0.dtd"
   xmlns:inkscape="http://www.inkscape.org/namespaces/inkscape"
   inkscape:version="1.0rc1 (09960d6, 2020-04-09)"
   height="1000"
   width="1000"
   sodipodi:docname="gcp.svg"
   id="svg2607"
   version="1.1"
   viewBox="0 0 1000 1000">
  <metadata
     id="metadata2611">
    <rdf:RDF>
      <cc:Work
         rdf:about="">
        <dc:format>image/svg+xml</dc:format>
        <dc:type
           rdf:resource="http://purl.org/dc/dcmitype/StillImage" />
        <dc:title />
      </cc:Work>
    </rdf:RDF>
  </metadata>
  <sodipodi:namedview
     inkscape:current-layer="svg2607"
     inkscape:window-maximized="1"
     inkscape:window-y="23"
     inkscape:window-x="0"
     inkscape:cy="112.04639"
     inkscape:cx="127.22887"
     inkscape:zoom="2.0327682"
     showgrid="false"
     id="namedview2609"
     inkscape:window-height="1002"
     inkscape:window-width="1792"
     inkscape:pageshadow="2"
     inkscape:pageopacity="0"
     guidetolerance="10"
     gridtolerance="10"
     objecttolerance="10"
     borderopacity="1"
     bordercolor="#666666"
     pagecolor="#ffffff"
     inkscape:document-rotation="0" />
  <defs
     id="defs2585">
    <style
       id="style2583">.cls-1{fill:#ea4335;}.cls-2{fill:#4285f4;}.cls-3{fill:#34a853;}.cls-4{fill:#fbbc05;}.cls-5{fill:#5f6368;}</style>
  </defs>
  <path
     style="stroke-width:29.4604"
     inkscape:connector-curvature="0"
     id="path2587"
     d="m 636.86231,303.0056 h 30.2725 l 86.2766,-81.70987 4.23815,-34.69086 a 387.7906,367.26435 0 0 0 -630.87869,179.18831 46.92236,44.4387 0 0 1 30.2725,-1.72021 l 172.55319,-26.94992 c 0,0 8.77901,-13.76167 13.31989,-12.90156 A 215.23741,203.84462 0 0 1 637.46776,303.0056 Z"
     class="cls-1" />
  <path
     style="stroke-width:29.4604"
     inkscape:connector-curvature="0"
     id="path2589"
     d="M 876.31772,365.79318 A 388.69878,368.12446 0 0 0 759.16317,186.89157 L 638.0732,301.57208 a 215.23741,203.84462 0 0 1 79.01119,161.69953 v 20.35579 a 107.77007,102.06567 0 1 1 0,204.13134 H 501.5443 l -21.49347,20.64249 v 122.42145 l 21.49347,20.35579 H 717.08439 A 280.32326,265.48539 0 0 0 876.31772,365.79318 Z"
     class="cls-2" />
  <path
     style="stroke-width:29.4604"
     inkscape:connector-curvature="0"
     id="path2591"
     d="M 285.70144,850.03166 H 501.24157 V 686.61188 H 285.70144 a 107.16462,101.49226 0 0 1 -44.50056,-9.17441 l -30.27248,8.8877 -86.88205,81.70989 -7.56812,28.67013 a 278.80964,264.05189 0 0 0 169.22321,53.32647 z"
     class="cls-3" />
  <path
     style="stroke-width:29.4604"
     inkscape:connector-curvature="0"
     id="path2593"
     d="M 285.70144,319.92097 A 280.32326,265.48539 0 0 0 116.47823,795.84508 L 241.50362,677.43747 A 107.77006,102.06566 0 1 1 384.08703,542.40117 L 509.11242,423.99354 A 280.02053,265.19869 0 0 0 285.70144,319.92097 Z"
     class="cls-4" />
</svg>
