<?xml version="1.0" encoding="UTF-8" standalone="no"?>
<svg
   xmlns:dc="http://purl.org/dc/elements/1.1/"
   xmlns:cc="http://creativecommons.org/ns#"
   xmlns:rdf="http://www.w3.org/1999/02/22-rdf-syntax-ns#"
   xmlns:svg="http://www.w3.org/2000/svg"
   xmlns="http://www.w3.org/2000/svg"
   xmlns:sodipodi="http://sodipodi.sourceforge.net/DTD/sodipodi-0.dtd"
   xmlns:inkscape="http://www.inkscape.org/namespaces/inkscape"
   width="1000"
   height="1000"
   version="1"
   id="svg875"
   sodipodi:docname="java.svg"
   inkscape:version="1.0rc1 (09960d6, 2020-04-09)">
  <metadata
     id="metadata881">
    <rdf:RDF>
      <cc:Work
         rdf:about="">
        <dc:format>image/svg+xml</dc:format>
        <dc:type
           rdf:resource="http://purl.org/dc/dcmitype/StillImage" />
        <dc:title />
      </cc:Work>
    </rdf:RDF>
  </metadata>
  <defs
     id="defs879" />
  <sodipodi:namedview
     inkscape:document-rotation="0"
     pagecolor="#ffffff"
     bordercolor="#666666"
     borderopacity="1"
     objecttolerance="10"
     gridtolerance="10"
     guidetolerance="10"
     inkscape:pageopacity="0"
     inkscape:pageshadow="2"
     inkscape:window-width="1123"
     inkscape:window-height="801"
     id="namedview877"
     showgrid="false"
     inkscape:zoom="0.31080535"
     inkscape:cx="174.82765"
     inkscape:cy="279.78911"
     inkscape:window-x="0"
     inkscape:window-y="23"
     inkscape:window-maximized="0"
     inkscape:current-layer="svg875" />
  <path
     style="opacity:0.2;stroke-width:17.4688"
     d="m 4.9616812,489.04974 c -0.206778,5.79839 -0.8944356,11.47344 -0.8944356,17.32308 -8.7e-6,268.7156 219.9564344,485.04622 493.1758744,485.04622 273.21945,0 493.17592,-216.33062 493.17592,-485.04622 0,-5.84964 -0.68769,-11.52469 -0.89449,-17.32308 -9.29988,260.57375 -225.0291,467.72312 -492.29521,467.72312 -267.27315,0 -482.995336,-207.14937 -492.2952241,-467.72312 z"
     id="path833"
     inkscape:connector-curvature="0" />
  <rect
     style="fill:#e74c3c;stroke-width:17.4688"
     width="970.08923"
     height="986.34851"
     x="-974.09479"
     y="-990.41901"
     rx="485.04462"
     ry="493.17426"
     transform="matrix(0,-1,-1,0,0,0)"
     id="rect835" />
  <g
     style="clip-rule:evenodd;opacity:0.2;fill-rule:evenodd;enable-background:new"
     transform="matrix(11.450488,0,0,11.865616,1401.9775,-135.06268)"
     id="g853">
    <path
       d="m -86.682,70.021 c 0,0 -2.2303,1.2982 1.5891,1.7362 4.6278,0.52836 6.9927,0.45227 12.091,-0.51144 0,0 1.3431,0.84021 3.2156,1.5679 -11.433,4.8982 -25.875,-0.28382 -16.896,-2.7927 z"
       id="path837"
       inkscape:connector-curvature="0" />
    <path
       d="m -88.08,63.628 c 0,0 -2.5019,1.8524 1.3204,2.2474 4.944,0.5104 8.8468,0.55226 15.604,-0.74823 0,0 0.93244,0.94717 2.4009,1.4648 -13.821,4.0426 -29.214,0.31805 -19.326,-2.964 z"
       id="path839"
       inkscape:connector-curvature="0" />
    <path
       d="m -76.304,52.781 c 2.8185,3.2444 -0.73906,6.1616 -0.73906,6.1616 0,0 7.1525,-3.6917 3.8684,-8.3168 -3.0684,-4.3112 -5.4208,-6.4528 7.3147,-13.839 1.29e-4,0 -19.992,4.9918 -10.444,15.994 z"
       id="path841"
       inkscape:connector-curvature="0" />
    <path
       d="m -61.183,74.75 c 0,0 1.6511,1.3611 -1.8185,2.4137 -6.5975,1.9983 -27.465,2.6011 -33.261,0.07996 -2.082,-0.90686 1.8242,-2.1638 3.0532,-2.4293 1.2815,-0.27723 2.0132,-0.22659 2.0132,-0.22659 -2.3172,-1.6317 -14.977,3.2046 -6.4297,4.5917 23.308,3.7781 42.488,-1.7017 36.442,-4.4294 z"
       id="path843"
       inkscape:connector-curvature="0" />
    <path
       d="m -85.609,57.003 c 0,0 -10.613,2.5215 -3.7582,3.4379 2.8952,0.38742 8.6634,0.29828 14.04,-0.15282 4.393,-0.36869 8.8016,-1.1572 8.8016,-1.1572 0,0 -1.5479,0.664 -2.6685,1.4288 -10.78,2.8352 -31.6,1.5148 -25.605,-1.3838 5.0675,-2.4515 9.1898,-2.1729 9.1898,-2.1729 z"
       id="path845"
       inkscape:connector-curvature="0" />
    <path
       d="m -66.569,67.644 c 10.957,-5.6922 5.8904,-11.163 2.3541,-10.426 -0.86475,0.18047 -1.2527,0.33678 -1.2527,0.33678 0,0 0.32218,-0.50472 0.93567,-0.72187 6.9959,-2.4584 12.375,7.2531 -2.256,11.099 -1.3e-4,0 0.1682,-0.15244 0.21896,-0.28808 z"
       id="path847"
       inkscape:connector-curvature="0" />
    <path
       d="m -73.174,24.859 c 0,0 6.0668,6.0703 -5.756,15.402 -9.4811,7.4886 -2.1617,11.757 -0.0034,16.636 -5.5348,-4.9933 -9.5945,-9.3895 -6.8715,-13.48 3.9987,-6.0043 15.078,-8.9163 12.631,-18.558 z"
       id="path849"
       inkscape:connector-curvature="0" />
    <path
       d="m -84.532,83.074 c 10.515,0.67227 26.667,-0.37411 27.049,-5.3501 0,0 -0.73479,1.8863 -8.6909,3.383 -8.9758,1.6898 -20.049,1.4931 -26.614,0.40912 0,0 1.3449,1.1132 8.2557,1.5579 z"
       id="path851"
       inkscape:connector-curvature="0" />
  </g>
  <g
     style="clip-rule:evenodd;fill:#ffffff;fill-rule:evenodd;enable-background:new"
     transform="matrix(11.450488,0,0,11.865616,1401.9775,-152.38112)"
     id="g871">
    <path
       d="m -86.682,70.021 c 0,0 -2.2303,1.2982 1.5891,1.7362 4.6278,0.52836 6.9927,0.45227 12.091,-0.51144 0,0 1.3431,0.84021 3.2156,1.5679 -11.433,4.8982 -25.875,-0.28382 -16.896,-2.7927 z"
       id="path855"
       inkscape:connector-curvature="0" />
    <path
       d="m -88.08,63.628 c 0,0 -2.5019,1.8524 1.3204,2.2474 4.944,0.5104 8.8468,0.55226 15.604,-0.74823 0,0 0.93244,0.94717 2.4009,1.4648 -13.821,4.0426 -29.214,0.31805 -19.326,-2.964 z"
       id="path857"
       inkscape:connector-curvature="0" />
    <path
       d="m -76.304,52.781 c 2.8185,3.2444 -0.73906,6.1616 -0.73906,6.1616 0,0 7.1525,-3.6917 3.8684,-8.3168 -3.0684,-4.3112 -5.4208,-6.4528 7.3147,-13.839 1.29e-4,0 -19.992,4.9918 -10.444,15.994 z"
       id="path859"
       inkscape:connector-curvature="0" />
    <path
       d="m -61.183,74.75 c 0,0 1.6511,1.3611 -1.8185,2.4137 -6.5975,1.9983 -27.465,2.6011 -33.261,0.07996 -2.082,-0.90686 1.8242,-2.1638 3.0532,-2.4293 1.2815,-0.27723 2.0132,-0.22659 2.0132,-0.22659 -2.3172,-1.6317 -14.977,3.2046 -6.4297,4.5917 23.308,3.7781 42.488,-1.7017 36.442,-4.4294 z"
       id="path861"
       inkscape:connector-curvature="0" />
    <path
       d="m -85.609,57.003 c 0,0 -10.613,2.5215 -3.7582,3.4379 2.8952,0.38742 8.6634,0.29828 14.04,-0.15282 4.393,-0.36869 8.8016,-1.1572 8.8016,-1.1572 0,0 -1.5479,0.664 -2.6685,1.4288 -10.78,2.8352 -31.6,1.5148 -25.605,-1.3838 5.0675,-2.4515 9.1898,-2.1729 9.1898,-2.1729 z"
       id="path863"
       inkscape:connector-curvature="0" />
    <path
       d="m -66.569,67.644 c 10.957,-5.6922 5.8904,-11.163 2.3541,-10.426 -0.86475,0.18047 -1.2527,0.33678 -1.2527,0.33678 0,0 0.32218,-0.50472 0.93567,-0.72187 6.9959,-2.4584 12.375,7.2531 -2.256,11.099 -1.3e-4,0 0.1682,-0.15244 0.21896,-0.28808 z"
       id="path865"
       inkscape:connector-curvature="0" />
    <path
       d="m -73.174,24.859 c 0,0 6.0668,6.0703 -5.756,15.402 -9.4811,7.4886 -2.1617,11.757 -0.0034,16.636 -5.5348,-4.9933 -9.5945,-9.3895 -6.8715,-13.48 3.9987,-6.0043 15.078,-8.9163 12.631,-18.558 z"
       id="path867"
       inkscape:connector-curvature="0" />
    <path
       d="m -84.532,83.074 c 10.515,0.67227 26.667,-0.37411 27.049,-5.3501 0,0 -0.73479,1.8863 -8.6909,3.383 -8.9758,1.6898 -20.049,1.4931 -26.614,0.40912 0,0 1.3449,1.1132 8.2557,1.5579 z"
       id="path869"
       inkscape:connector-curvature="0" />
  </g>
  <path
     style="opacity:0.2;fill:#ffffff;stroke-width:17.4688"
     d="M 497.17511,4.0039062 C 223.95565,4.0039062 4,220.33376 4,489.04934 c 0,1.96713 0.1987792,3.88133 0.3096317,5.81987 C 10.501511,231.52799 227.87865,21.328165 497.17511,21.328165 c 269.27353,0 486.67256,210.163595 492.89989,473.473335 0.11019,-1.91585 0.27522,-3.80824 0.27522,-5.75216 0,-268.71558 -219.95568,-485.0454338 -493.17511,-485.0454338 z"
     id="path873"
     inkscape:connector-curvature="0" />
</svg>
